<?xml version="1.0" encoding="UTF-8"?>
<svg version="1.1" xmlns="http://www.w3.org/2000/svg" width="500" height="500">
<path d="M0 0 C165 0 330 0 500 0 C500 165 500 330 500 500 C335 500 170 500 0 500 C0 335 0 170 0 0 Z " fill="#FEFEFE" transform="translate(0,0)"/>
<path d="M0 0 C8.80561583 1.92759749 18.1024195 5.89564751 24 13 C25.15265821 19.79729616 23.50313376 26.96597164 22.171875 33.6328125 C21.98159729 34.62715302 21.79131958 35.62149353 21.59527588 36.64596558 C20.98883218 39.80738617 20.37011658 42.96623572 19.75 46.125 C17.31106748 58.68698361 14.89912307 71.2491091 12.765625 83.8671875 C12.51954498 85.30156662 12.51954498 85.30156662 12.26849365 86.7649231 C10.89018549 95.05976446 9.87834307 103.39634494 9.8671875 111.81640625 C9.86525391 113.23856445 9.86525391 113.23856445 9.86328125 114.68945312 C9.86714844 115.63755859 9.87101563 116.58566406 9.875 117.5625 C9.87113281 118.54541016 9.86726562 119.52832031 9.86328125 120.54101562 C9.86457031 121.47751953 9.86585938 122.41402344 9.8671875 123.37890625 C9.86887939 124.64069702 9.86887939 124.64069702 9.87060547 125.92797852 C9.8684877 128.062473 9.8684877 128.062473 11 130 C22.9611071 128.30639191 33.775386 115.92029786 41.23046875 107.0859375 C43.22502769 104.73473557 45.29584238 102.46415964 47.375 100.1875 C51.24716819 95.89742495 54.91575648 91.47581921 58.55078125 86.984375 C61.31810802 83.61238513 64.15150415 80.30337679 67 77 C71.31951465 71.98700394 75.55097766 66.91461883 79.72265625 61.77734375 C82.74085956 58.09648173 85.82189568 54.47088492 88.90771484 50.84667969 C91.88999639 47.33651445 94.8020384 43.77818629 97.6875 40.1875 C108.65734363 26.74944155 108.65734363 26.74944155 116 23 C127.41777989 22.3088511 138.85832189 26.26402666 148 33 C150.4358452 35.4358452 150.29664738 36.02481258 150.3125 39.375 C150.17703819 44.68885849 149.51425077 49.80664249 148.6953125 55.046875 C148.56209091 55.91676056 148.42886932 56.78664612 148.29161072 57.68289185 C147.86542473 60.45595563 147.43363174 63.22809134 147 66 C146.86117401 66.88850647 146.72234802 67.77701294 146.57931519 68.69244385 C145.87248624 73.20893563 145.16171972 77.72480138 144.44970703 82.24047852 C141.82585493 98.89321989 139.27847732 115.54233145 137.15454102 132.26708984 C137.01330811 133.37648926 136.8720752 134.48588867 136.7265625 135.62890625 C136.60877441 136.57838135 136.49098633 137.52785645 136.36962891 138.50610352 C136 141 136 141 135.46728516 143.09204102 C134.64148085 146.46385952 134.77373103 149.92213535 134.75 153.375 C134.729375 154.1175 134.70875 154.86 134.6875 155.625 C134.65315086 160.48540287 135.31333882 163.78741961 138 168 C142.51411597 170.25705798 147.13181725 169.82503395 152 169 C163.25175079 164.97414421 173.88837869 158.76266568 184.08984375 152.59375 C189.83123254 149.44947265 194.55729701 148.38640924 201 149 C204 150.375 204 150.375 206 153 C208.01791699 160.3798107 204.82396282 167.08870435 201.26171875 173.46484375 C197.67188794 179.37246716 192.86833517 184.14619717 188 189 C187.40445312 189.65484375 186.80890625 190.3096875 186.1953125 190.984375 C174.50891156 203.65917801 156.05138788 213.23252642 140 219 C138.97261719 219.391875 137.94523437 219.78375 136.88671875 220.1875 C124.95675301 224.22490321 109.98697557 225.36026236 98 221 C89.40508221 216.39288238 84.66307603 208.86299222 81.625 199.8125 C75.32510749 175.66658147 81.20233422 148.16365854 85 124 C83.85905884 125.14202881 83.85905884 125.14202881 82.69506836 126.30712891 C80.76161677 128.23900417 78.824387 130.16623983 76.87890625 132.0859375 C70.04642647 138.75967844 70.04642647 138.75967844 63.6875 145.875 C61.21205789 148.8731161 58.42922196 151.2744483 55.46875 153.78515625 C52.1836636 156.73237775 49.1018913 159.86206401 46 163 C41.7799744 167.25993652 37.55578389 171.42696385 32.9765625 175.3046875 C30.49139806 177.4362317 28.09559854 179.65683599 25.6875 181.875 C17.71132332 189.1300429 9.34206807 195.80734562 0.75 202.3125 C0.08846924 202.8163623 -0.57306152 203.32022461 -1.25463867 203.83935547 C-3.14834929 205.25969775 -5.06168996 206.64125531 -7 208 C-7.85585693 208.60581909 -7.85585693 208.60581909 -8.72900391 209.22387695 C-13.46604281 212.2778594 -17.41708493 212.6644066 -22.875 212.5625 C-23.6985498 212.55371826 -24.52209961 212.54493652 -25.37060547 212.53588867 C-36.68146476 212.16896223 -49.94764894 209.11863288 -59 202 C-64.30216763 195.73945935 -63.24121594 188.60715197 -63.25 180.8125 C-63.25133942 180.11738312 -63.25267883 179.42226624 -63.25405884 178.70608521 C-63.24902256 166.60911143 -62.2660267 154.86439401 -60.43652344 142.89794922 C-59.81555817 138.7755456 -59.26853608 134.64401046 -58.71606445 130.51196289 C-58.15700848 126.33950464 -57.57960072 122.16964635 -57 118 C-57.66 118 -58.32 118 -59 118 C-59.25136719 118.56203125 -59.50273437 119.1240625 -59.76171875 119.703125 C-61.18833099 122.34933319 -62.88201868 124.44345088 -64.8125 126.75 C-65.61816406 127.72066406 -66.42382812 128.69132813 -67.25390625 129.69140625 C-67.69492676 130.22137207 -68.13594727 130.75133789 -68.59033203 131.29736328 C-71.1663853 134.40879305 -73.70581072 137.55000929 -76.25 140.6875 C-77.36451344 142.05995259 -78.47909772 143.43234766 -79.59375 144.8046875 C-80.7291901 146.20310597 -81.86460666 147.60154356 -83 149 C-96.74236641 165.92638151 -96.74236641 165.92638151 -102.90625 173.44140625 C-104.30719493 175.15338187 -105.70300333 176.86957315 -107.09375 178.58984375 C-112.48197906 185.23727852 -118.04753711 191.71354387 -123.66796875 198.1640625 C-126.34253015 201.23557449 -128.99046111 204.3285362 -131.62939453 207.43066406 C-159.23527386 239.85833427 -159.23527386 239.85833427 -174.30078125 241.3203125 C-184.93948666 241.83708172 -184.93948666 241.83708172 -189.3125 238.125 C-192.06851625 235.25096794 -192.94925927 233.56829623 -193.3125 229.5 C-193.0682465 219.03467694 -186.69677871 211.4722539 -180.38964844 203.71630859 C-178.54290723 201.43545991 -176.73692394 199.1239023 -174.92993164 196.81152344 C-173.55236254 195.04953361 -172.1696008 193.29174765 -170.78515625 191.53515625 C-168.01998315 188.02614675 -165.25958557 184.51340443 -162.5 181 C-161.5833549 179.83331639 -160.66668823 178.66664973 -159.75 177.5 C-159.29625 176.9225 -158.8425 176.345 -158.375 175.75 C-131.33333333 141.33333333 -104.29166667 106.91666667 -77.25 72.5 C-76.79633057 71.9225 -76.34266113 71.345 -75.87524414 70.75 C-74.9581661 69.58301697 -74.0406853 68.41635034 -73.12280273 67.25 C-70.83402796 64.34062997 -68.55243898 61.42615819 -66.28515625 58.5 C-61.13543804 51.87008451 -55.85009803 45.3983188 -50.35107422 39.05444336 C-47.22424561 35.44526851 -44.18165674 31.78359123 -41.1875 28.0625 C-38.18126497 24.35372091 -35.07820733 20.90833383 -31.60546875 17.6328125 C-29.87855996 15.94182786 -29.87855996 15.94182786 -28.1484375 13.59765625 C-25.80444006 10.76355026 -23.30516862 8.61053649 -20.4375 6.3125 C-19.48746094 5.54550781 -18.53742188 4.77851562 -17.55859375 3.98828125 C-11.58276746 -0.6555288 -7.42094103 -0.69680197 0 0 Z " fill="#010101" transform="translate(198,119)"/>
<path d="M0 0 C8.07942042 6.14140709 13.8495866 13.80971274 16.5625 23.6875 C18.16202295 37.99726727 15.76895424 49.61390975 6.90234375 61.171875 C0.34209819 68.22496038 -9.23608785 73.50955299 -18.953125 74.15625 C-31.80629922 74.4385896 -41.05706804 72.62227294 -51.25 64.25 C-58.70432629 57.08694261 -64.44695895 46.75391581 -64.72949219 36.29248047 C-64.83207204 25.76339148 -63.01303769 17.25562487 -56.4375 8.6875 C-55.756875 7.718125 -55.07625 6.74875 -54.375 5.75 C-40.55937736 -10.40365108 -17.00352665 -11.30174526 0 0 Z " fill="#030303" transform="translate(481.4375,208.3125)"/>
<path d="M0 0 C7.26 0 14.52 0 22 0 C22 8.58 22 17.16 22 26 C25.96 26 29.92 26 34 26 C29.5496316 32.23051576 24.63087847 37.9715555 19.58325195 43.71899414 C16.9371984 46.73687493 14.33661748 49.73038685 12 53 C8.99317836 51.6729014 7.12828175 50.30954211 5.01171875 47.8046875 C4.47313232 47.17457764 3.9345459 46.54446777 3.37963867 45.89526367 C2.82123291 45.22857666 2.26282715 44.56188965 1.6875 43.875 C0.5315081 42.51410363 -0.62473985 41.15342473 -1.78125 39.79296875 C-2.33425781 39.1386084 -2.88726562 38.48424805 -3.45703125 37.81005859 C-5.88708751 34.95935651 -8.40226099 32.18589775 -10.92578125 29.41796875 C-12 28 -12 28 -12 26 C-8.04 26 -4.08 26 0 26 C0 17.42 0 8.84 0 0 Z " fill="#FAFAFA" transform="translate(447,215)"/>
</svg>
